<svg width="67" height="72" viewBox="0 0 67 72" fill="none" xmlns="http://www.w3.org/2000/svg">
<path d="M33.4649 63.5084C28.4334 63.5084 23.7313 62.0664 19.7308 59.5687L17.2806 65.7694C22.0604 68.5337 27.5846 70.1145 33.4676 70.1145C39.3506 70.1145 44.8747 68.5337 49.6545 65.7694L47.2044 59.5687C43.2038 62.0664 38.499 63.5084 33.4702 63.5084H33.4649Z" fill="white"/>
<path d="M40.6252 11.0273C50.7336 13.9358 58.3893 22.8382 59.613 33.6996H66.1494C64.7516 18.1748 52.8383 5.69457 37.7278 3.69208L40.6252 11.0246V11.0273Z" fill="white"/>
<path d="M10.7791 50.3045C8.47088 46.3294 7.14272 41.7014 7.14272 36.7632C7.14272 24.5387 15.2589 14.2106 26.3019 11.0327L29.2046 3.69208C13.1114 5.82245 0.641174 19.8399 0.641174 36.7632C0.641174 44.6561 3.3564 51.9152 7.88177 57.6343L10.7791 50.3045Z" fill="white"/>
<path d="M12.0162 72L33.4649 17.7286L54.6378 72L61.2063 70.1934L33.4649 0L5.72351 70.1934L12.0162 72Z" fill="white"/>
<path d="M27.3436 40.3057L24.7328 46.9117H57.8109C57.3343 48.0871 56.78 49.2217 56.1507 50.3045L59.048 57.6343C62.8879 52.7832 65.4237 46.8219 66.1039 40.3057H27.3436Z" fill="white"/>
</svg>
